<mxfile host="app.diagrams.net" modified="2023-11-29T18:20:55.612Z" agent="Mozilla/5.0 (Macintosh; Intel Mac OS X 10_15_7) AppleWebKit/537.36 (KHTML, like Gecko) Chrome/119.0.0.0 Safari/537.36" etag="ypYxfC0_xa1dwxTcSIMj" version="22.1.5" type="device">
  <diagram name="Page-1" id="58cdce13-f638-feb5-8d6f-7d28b1aa9fa0">
    <mxGraphModel dx="984" dy="660" grid="1" gridSize="10" guides="1" tooltips="1" connect="1" arrows="1" fold="1" page="1" pageScale="1" pageWidth="1100" pageHeight="850" background="none" math="0" shadow="0">
      <root>
        <mxCell id="0" />
        <mxCell id="1" parent="0" />
        <mxCell id="InFwi8KaWEEAhwMyEkg3-11" style="edgeStyle=orthogonalEdgeStyle;rounded=0;orthogonalLoop=1;jettySize=auto;html=1;" parent="1" source="a7hoAzgMeFDYxmFGqqUO-38" target="InFwi8KaWEEAhwMyEkg3-1" edge="1">
          <mxGeometry relative="1" as="geometry">
            <Array as="points">
              <mxPoint x="825" y="340" />
              <mxPoint x="825" y="340" />
            </Array>
          </mxGeometry>
        </mxCell>
        <mxCell id="a7hoAzgMeFDYxmFGqqUO-38" value="Je na sklade" style="swimlane;fontStyle=0;childLayout=stackLayout;horizontal=1;startSize=30;horizontalStack=0;resizeParent=1;resizeParentMax=0;resizeLast=0;collapsible=1;marginBottom=0;whiteSpace=wrap;html=1;" parent="1" vertex="1">
          <mxGeometry x="660" y="375" width="270" height="150" as="geometry" />
        </mxCell>
        <mxCell id="a7hoAzgMeFDYxmFGqqUO-74" value="entry sklad = true;" style="text;strokeColor=none;fillColor=none;align=left;verticalAlign=middle;spacingLeft=4;spacingRight=4;overflow=hidden;points=[[0,0.5],[1,0.5]];portConstraint=eastwest;rotatable=0;whiteSpace=wrap;html=1;" parent="a7hoAzgMeFDYxmFGqqUO-38" vertex="1">
          <mxGeometry y="30" width="270" height="30" as="geometry" />
        </mxCell>
        <mxCell id="a7hoAzgMeFDYxmFGqqUO-39" value="event prodat_lek / je_na_sklade = false" style="text;strokeColor=none;fillColor=none;align=left;verticalAlign=middle;spacingLeft=4;spacingRight=4;overflow=hidden;points=[[0,0.5],[1,0.5]];portConstraint=eastwest;rotatable=0;whiteSpace=wrap;html=1;" parent="a7hoAzgMeFDYxmFGqqUO-38" vertex="1">
          <mxGeometry y="60" width="270" height="30" as="geometry" />
        </mxCell>
        <mxCell id="a7hoAzgMeFDYxmFGqqUO-40" value="event WHEN (!je_na_sklade) / sklad = false" style="text;strokeColor=none;fillColor=none;align=left;verticalAlign=middle;spacingLeft=4;spacingRight=4;overflow=hidden;points=[[0,0.5],[1,0.5]];portConstraint=eastwest;rotatable=0;whiteSpace=wrap;html=1;" parent="a7hoAzgMeFDYxmFGqqUO-38" vertex="1">
          <mxGeometry y="90" width="270" height="30" as="geometry" />
        </mxCell>
        <mxCell id="a7hoAzgMeFDYxmFGqqUO-41" value="event zrus()" style="text;strokeColor=none;fillColor=none;align=left;verticalAlign=middle;spacingLeft=4;spacingRight=4;overflow=hidden;points=[[0,0.5],[1,0.5]];portConstraint=eastwest;rotatable=0;whiteSpace=wrap;html=1;" parent="a7hoAzgMeFDYxmFGqqUO-38" vertex="1">
          <mxGeometry y="120" width="270" height="30" as="geometry" />
        </mxCell>
        <mxCell id="InFwi8KaWEEAhwMyEkg3-12" style="edgeStyle=orthogonalEdgeStyle;rounded=0;orthogonalLoop=1;jettySize=auto;html=1;entryX=0;entryY=0.5;entryDx=0;entryDy=0;" parent="1" source="a7hoAzgMeFDYxmFGqqUO-46" target="InFwi8KaWEEAhwMyEkg3-3" edge="1">
          <mxGeometry relative="1" as="geometry">
            <Array as="points">
              <mxPoint x="540" y="450" />
              <mxPoint x="540" y="165" />
            </Array>
          </mxGeometry>
        </mxCell>
        <mxCell id="InFwi8KaWEEAhwMyEkg3-21" style="edgeStyle=orthogonalEdgeStyle;rounded=0;orthogonalLoop=1;jettySize=auto;html=1;" parent="1" source="a7hoAzgMeFDYxmFGqqUO-46" target="a7hoAzgMeFDYxmFGqqUO-66" edge="1">
          <mxGeometry relative="1" as="geometry">
            <Array as="points">
              <mxPoint x="210" y="280" />
              <mxPoint x="210" y="280" />
            </Array>
          </mxGeometry>
        </mxCell>
        <mxCell id="a7hoAzgMeFDYxmFGqqUO-46" value="zapsan" style="swimlane;fontStyle=0;childLayout=stackLayout;horizontal=1;startSize=30;horizontalStack=0;resizeParent=1;resizeParentMax=0;resizeLast=0;collapsible=1;marginBottom=0;whiteSpace=wrap;html=1;" parent="1" vertex="1">
          <mxGeometry x="80" y="360" width="260" height="120" as="geometry" />
        </mxCell>
        <mxCell id="a7hoAzgMeFDYxmFGqqUO-47" value="entry zapsan = true;" style="text;strokeColor=none;fillColor=none;align=left;verticalAlign=middle;spacingLeft=4;spacingRight=4;overflow=hidden;points=[[0,0.5],[1,0.5]];portConstraint=eastwest;rotatable=0;whiteSpace=wrap;html=1;" parent="a7hoAzgMeFDYxmFGqqUO-46" vertex="1">
          <mxGeometry y="30" width="260" height="30" as="geometry" />
        </mxCell>
        <mxCell id="InFwi8KaWEEAhwMyEkg3-14" value="event&amp;nbsp; smazat() /zapsan = false, smazat = 1" style="text;strokeColor=none;fillColor=none;align=left;verticalAlign=middle;spacingLeft=4;spacingRight=4;overflow=hidden;points=[[0,0.5],[1,0.5]];portConstraint=eastwest;rotatable=0;whiteSpace=wrap;html=1;" parent="a7hoAzgMeFDYxmFGqqUO-46" vertex="1">
          <mxGeometry y="60" width="260" height="30" as="geometry" />
        </mxCell>
        <mxCell id="OFmTkcQ4O3wWDwpeKF2P-6" value="event zrus()" style="text;strokeColor=none;fillColor=none;align=left;verticalAlign=middle;spacingLeft=4;spacingRight=4;overflow=hidden;points=[[0,0.5],[1,0.5]];portConstraint=eastwest;rotatable=0;whiteSpace=wrap;html=1;" parent="a7hoAzgMeFDYxmFGqqUO-46" vertex="1">
          <mxGeometry y="90" width="260" height="30" as="geometry" />
        </mxCell>
        <mxCell id="a7hoAzgMeFDYxmFGqqUO-63" value="Neni zapsan" style="swimlane;fontStyle=0;childLayout=stackLayout;horizontal=1;startSize=30;horizontalStack=0;resizeParent=1;resizeParentMax=0;resizeLast=0;collapsible=1;marginBottom=0;whiteSpace=wrap;html=1;" parent="1" vertex="1">
          <mxGeometry x="140" y="110" width="270" height="150" as="geometry" />
        </mxCell>
        <mxCell id="a7hoAzgMeFDYxmFGqqUO-73" value="do&amp;nbsp; zapsan = false, do smazat = 0;" style="text;strokeColor=none;fillColor=none;align=left;verticalAlign=middle;spacingLeft=4;spacingRight=4;overflow=hidden;points=[[0,0.5],[1,0.5]];portConstraint=eastwest;rotatable=0;whiteSpace=wrap;html=1;" parent="a7hoAzgMeFDYxmFGqqUO-63" vertex="1">
          <mxGeometry y="30" width="270" height="30" as="geometry" />
        </mxCell>
        <mxCell id="a7hoAzgMeFDYxmFGqqUO-65" value="event WHEN (smazan != 1) / zapsat()" style="text;strokeColor=none;fillColor=none;align=left;verticalAlign=middle;spacingLeft=4;spacingRight=4;overflow=hidden;points=[[0,0.5],[1,0.5]];portConstraint=eastwest;rotatable=0;whiteSpace=wrap;html=1;" parent="a7hoAzgMeFDYxmFGqqUO-63" vertex="1">
          <mxGeometry y="60" width="270" height="30" as="geometry" />
        </mxCell>
        <mxCell id="OFmTkcQ4O3wWDwpeKF2P-2" value="event zapsat() /zaspan = true," style="text;strokeColor=none;fillColor=none;align=left;verticalAlign=middle;spacingLeft=4;spacingRight=4;overflow=hidden;points=[[0,0.5],[1,0.5]];portConstraint=eastwest;rotatable=0;whiteSpace=wrap;html=1;" parent="a7hoAzgMeFDYxmFGqqUO-63" vertex="1">
          <mxGeometry y="90" width="270" height="30" as="geometry" />
        </mxCell>
        <mxCell id="a7hoAzgMeFDYxmFGqqUO-66" value="event zrus()" style="text;strokeColor=none;fillColor=none;align=left;verticalAlign=middle;spacingLeft=4;spacingRight=4;overflow=hidden;points=[[0,0.5],[1,0.5]];portConstraint=eastwest;rotatable=0;whiteSpace=wrap;html=1;" parent="a7hoAzgMeFDYxmFGqqUO-63" vertex="1">
          <mxGeometry y="120" width="270" height="30" as="geometry" />
        </mxCell>
        <mxCell id="a7hoAzgMeFDYxmFGqqUO-68" value="[zapsan != false]" style="text;html=1;align=center;verticalAlign=middle;resizable=0;points=[];autosize=1;strokeColor=none;fillColor=none;" parent="1" vertex="1">
          <mxGeometry y="260" width="110" height="30" as="geometry" />
        </mxCell>
        <mxCell id="a7hoAzgMeFDYxmFGqqUO-71" value="[zapsan == true]" style="text;html=1;align=center;verticalAlign=middle;resizable=0;points=[];autosize=1;strokeColor=none;fillColor=none;" parent="1" vertex="1">
          <mxGeometry x="430" y="410" width="110" height="30" as="geometry" />
        </mxCell>
        <mxCell id="InFwi8KaWEEAhwMyEkg3-6" style="edgeStyle=orthogonalEdgeStyle;rounded=0;orthogonalLoop=1;jettySize=auto;html=1;" parent="1" source="InFwi8KaWEEAhwMyEkg3-1" target="a7hoAzgMeFDYxmFGqqUO-38" edge="1">
          <mxGeometry relative="1" as="geometry">
            <Array as="points">
              <mxPoint x="740" y="340" />
              <mxPoint x="740" y="340" />
            </Array>
          </mxGeometry>
        </mxCell>
        <mxCell id="InFwi8KaWEEAhwMyEkg3-1" value="Neni na sklade" style="swimlane;fontStyle=0;childLayout=stackLayout;horizontal=1;startSize=30;horizontalStack=0;resizeParent=1;resizeParentMax=0;resizeLast=0;collapsible=1;marginBottom=0;whiteSpace=wrap;html=1;" parent="1" vertex="1">
          <mxGeometry x="690" y="90" width="270" height="180" as="geometry" />
        </mxCell>
        <mxCell id="InFwi8KaWEEAhwMyEkg3-2" value="do sklad = false;" style="text;strokeColor=none;fillColor=none;align=left;verticalAlign=middle;spacingLeft=4;spacingRight=4;overflow=hidden;points=[[0,0.5],[1,0.5]];portConstraint=eastwest;rotatable=0;whiteSpace=wrap;html=1;" parent="InFwi8KaWEEAhwMyEkg3-1" vertex="1">
          <mxGeometry y="30" width="270" height="30" as="geometry" />
        </mxCell>
        <mxCell id="InFwi8KaWEEAhwMyEkg3-3" value="event WHEN (sklad != true) / naskladnit()" style="text;strokeColor=none;fillColor=none;align=left;verticalAlign=middle;spacingLeft=4;spacingRight=4;overflow=hidden;points=[[0,0.5],[1,0.5]];portConstraint=eastwest;rotatable=0;whiteSpace=wrap;html=1;" parent="InFwi8KaWEEAhwMyEkg3-1" vertex="1">
          <mxGeometry y="60" width="270" height="30" as="geometry" />
        </mxCell>
        <mxCell id="jumvT-95QA2QLT6KWwjG-2" value="event naskladnit() / sklad = true" style="text;strokeColor=none;fillColor=none;align=left;verticalAlign=middle;spacingLeft=4;spacingRight=4;overflow=hidden;points=[[0,0.5],[1,0.5]];portConstraint=eastwest;rotatable=0;whiteSpace=wrap;html=1;" vertex="1" parent="InFwi8KaWEEAhwMyEkg3-1">
          <mxGeometry y="90" width="270" height="30" as="geometry" />
        </mxCell>
        <mxCell id="InFwi8KaWEEAhwMyEkg3-4" value="event WHEN (!je_na_sklade) / sklad = false" style="text;strokeColor=none;fillColor=none;align=left;verticalAlign=middle;spacingLeft=4;spacingRight=4;overflow=hidden;points=[[0,0.5],[1,0.5]];portConstraint=eastwest;rotatable=0;whiteSpace=wrap;html=1;" parent="InFwi8KaWEEAhwMyEkg3-1" vertex="1">
          <mxGeometry y="120" width="270" height="30" as="geometry" />
        </mxCell>
        <mxCell id="InFwi8KaWEEAhwMyEkg3-5" value="event zrus()" style="text;strokeColor=none;fillColor=none;align=left;verticalAlign=middle;spacingLeft=4;spacingRight=4;overflow=hidden;points=[[0,0.5],[1,0.5]];portConstraint=eastwest;rotatable=0;whiteSpace=wrap;html=1;" parent="InFwi8KaWEEAhwMyEkg3-1" vertex="1">
          <mxGeometry y="150" width="270" height="30" as="geometry" />
        </mxCell>
        <mxCell id="InFwi8KaWEEAhwMyEkg3-15" style="edgeStyle=orthogonalEdgeStyle;rounded=0;orthogonalLoop=1;jettySize=auto;html=1;entryX=0.162;entryY=-0.024;entryDx=0;entryDy=0;entryPerimeter=0;" parent="1" source="a7hoAzgMeFDYxmFGqqUO-66" target="a7hoAzgMeFDYxmFGqqUO-46" edge="1">
          <mxGeometry relative="1" as="geometry">
            <Array as="points">
              <mxPoint x="122" y="245" />
              <mxPoint x="122" y="340" />
            </Array>
          </mxGeometry>
        </mxCell>
        <mxCell id="InFwi8KaWEEAhwMyEkg3-17" value="[smazat == 1]" style="text;html=1;align=center;verticalAlign=middle;resizable=0;points=[];autosize=1;strokeColor=none;fillColor=none;" parent="1" vertex="1">
          <mxGeometry x="215" y="300" width="100" height="30" as="geometry" />
        </mxCell>
        <mxCell id="jumvT-95QA2QLT6KWwjG-3" value="[sklad == true]" style="text;html=1;strokeColor=none;fillColor=none;align=center;verticalAlign=middle;whiteSpace=wrap;rounded=0;" vertex="1" parent="1">
          <mxGeometry x="660" y="310" width="80" height="30" as="geometry" />
        </mxCell>
        <mxCell id="jumvT-95QA2QLT6KWwjG-4" value="[je_na_sklad == false]" style="text;html=1;strokeColor=none;fillColor=none;align=center;verticalAlign=middle;whiteSpace=wrap;rounded=0;" vertex="1" parent="1">
          <mxGeometry x="830" y="310" width="130" height="30" as="geometry" />
        </mxCell>
        <mxCell id="jumvT-95QA2QLT6KWwjG-5" value="Lek" style="shape=umlFrame;whiteSpace=wrap;html=1;pointerEvents=0;" vertex="1" parent="1">
          <mxGeometry y="50" width="1000" height="520" as="geometry" />
        </mxCell>
        <mxCell id="jumvT-95QA2QLT6KWwjG-8" value="" style="ellipse;html=1;shape=startState;fillColor=#000000;strokeColor=#ff0000;" vertex="1" parent="1">
          <mxGeometry x="40" y="130" width="30" height="30" as="geometry" />
        </mxCell>
        <mxCell id="jumvT-95QA2QLT6KWwjG-9" value="" style="edgeStyle=orthogonalEdgeStyle;html=1;verticalAlign=bottom;endArrow=open;endSize=8;strokeColor=#ff0000;rounded=0;entryX=-0.004;entryY=0.167;entryDx=0;entryDy=0;entryPerimeter=0;" edge="1" source="jumvT-95QA2QLT6KWwjG-8" parent="1" target="a7hoAzgMeFDYxmFGqqUO-73">
          <mxGeometry relative="1" as="geometry">
            <mxPoint x="55" y="220" as="targetPoint" />
          </mxGeometry>
        </mxCell>
      </root>
    </mxGraphModel>
  </diagram>
</mxfile>
